<svg width="87" height="48" viewBox="0 0 87 48" fill="none" xmlns="http://www.w3.org/2000/svg">
<path d="M86.1346 14.3504L20.757 27.0135C15.8342 27.9671 11.2268 24.1965 11.1794 19.1755L11.1654 17.6872C11.1007 10.8292 19.1309 7.1343 24.3525 11.6195L28.66 15.3194C30.2406 16.6771 32.2825 17.3711 34.3544 17.2549L86.1346 14.3504Z" fill="#3BA4E4"/>
<mask id="path-2-outside-1_108_5" maskUnits="userSpaceOnUse" x="0" y="15.7031" width="20" height="33" fill="black">
<rect fill="white" y="15.7031" width="20" height="33"/>
<path d="M14.6591 17.6122H18.1818V38.4077C18.1818 40.2637 17.8409 41.8404 17.1591 43.1378C16.4773 44.4351 15.5161 45.42 14.2756 46.0923C13.035 46.7647 11.572 47.1009 9.88636 47.1009C8.29545 47.1009 6.87973 46.812 5.6392 46.2344C4.39867 45.6473 3.4233 44.8139 2.71307 43.7344C2.00284 42.6548 1.64773 41.3717 1.64773 39.8849H5.11364C5.11364 40.7088 5.31723 41.4285 5.72443 42.044C6.1411 42.6501 6.70928 43.1236 7.42898 43.4645C8.14867 43.8054 8.9678 43.9759 9.88636 43.9759C10.8996 43.9759 11.7614 43.7628 12.4716 43.3366C13.1818 42.9105 13.7216 42.2855 14.0909 41.4616C14.4697 40.6283 14.6591 39.6103 14.6591 38.4077V17.6122Z"/>
</mask>
<path d="M14.6591 17.6122H18.1818V38.4077C18.1818 40.2637 17.8409 41.8404 17.1591 43.1378C16.4773 44.4351 15.5161 45.42 14.2756 46.0923C13.035 46.7647 11.572 47.1009 9.88636 47.1009C8.29545 47.1009 6.87973 46.812 5.6392 46.2344C4.39867 45.6473 3.4233 44.8139 2.71307 43.7344C2.00284 42.6548 1.64773 41.3717 1.64773 39.8849H5.11364C5.11364 40.7088 5.31723 41.4285 5.72443 42.044C6.1411 42.6501 6.70928 43.1236 7.42898 43.4645C8.14867 43.8054 8.9678 43.9759 9.88636 43.9759C10.8996 43.9759 11.7614 43.7628 12.4716 43.3366C13.1818 42.9105 13.7216 42.2855 14.0909 41.4616C14.4697 40.6283 14.6591 39.6103 14.6591 38.4077V17.6122Z" fill="black"/>
<path d="M14.6591 17.6122V16.6122H13.6591V17.6122H14.6591ZM18.1818 17.6122H19.1818V16.6122H18.1818V17.6122ZM17.1591 43.1378L18.0443 43.603L18.0443 43.603L17.1591 43.1378ZM14.2756 46.0923L14.7521 46.9715L14.7521 46.9715L14.2756 46.0923ZM5.6392 46.2344L5.21141 47.1383L5.21708 47.1409L5.6392 46.2344ZM2.71307 43.7344L1.87765 44.284L1.87765 44.284L2.71307 43.7344ZM1.64773 39.8849V38.8849H0.647727V39.8849H1.64773ZM5.11364 39.8849H6.11364V38.8849H5.11364V39.8849ZM5.72443 42.044L4.89041 42.5958L4.89534 42.6032L4.90039 42.6106L5.72443 42.044ZM7.42898 43.4645L7.85706 42.5608L7.85706 42.5608L7.42898 43.4645ZM12.4716 43.3366L11.9571 42.4792L11.9571 42.4792L12.4716 43.3366ZM14.0909 41.4616L13.1805 41.0478L13.1784 41.0526L14.0909 41.4616ZM14.6591 18.6122H18.1818V16.6122H14.6591V18.6122ZM17.1818 17.6122V38.4077H19.1818V17.6122H17.1818ZM17.1818 38.4077C17.1818 40.1438 16.8629 41.5519 16.2739 42.6726L18.0443 43.603C18.8189 42.129 19.1818 40.3837 19.1818 38.4077H17.1818ZM16.2739 42.6726C15.6805 43.8017 14.8584 44.639 13.7991 45.2132L14.7521 46.9715C16.1738 46.2009 17.274 45.0686 18.0443 43.603L16.2739 42.6726ZM13.7991 45.2132C12.7308 45.7921 11.4378 46.1009 9.88636 46.1009V48.1009C11.7061 48.1009 13.3393 47.7372 14.7521 46.9715L13.7991 45.2132ZM9.88636 46.1009C8.41771 46.1009 7.14982 45.8347 6.06133 45.3278L5.21708 47.1409C6.60965 47.7894 8.1732 48.1009 9.88636 48.1009V46.1009ZM6.06699 45.3305C4.98153 44.8168 4.15157 44.1014 3.54849 43.1848L1.87765 44.284C2.69502 45.5264 3.81582 46.4777 5.21142 47.1383L6.06699 45.3305ZM3.54849 43.1848C2.96109 42.2919 2.64773 41.2065 2.64773 39.8849H0.647727C0.647727 41.5368 1.04459 43.0177 1.87765 44.284L3.54849 43.1848ZM1.64773 40.8849H5.11364V38.8849H1.64773V40.8849ZM4.11364 39.8849C4.11364 40.8814 4.36261 41.7979 4.89041 42.5958L6.55845 41.4923C6.27186 41.0591 6.11364 40.5362 6.11364 39.8849H4.11364ZM4.90039 42.6106C5.4252 43.3739 6.1354 43.9583 7.00089 44.3682L7.85706 42.5608C7.28316 42.2889 6.857 41.9263 6.54847 41.4775L4.90039 42.6106ZM7.00089 44.3682C7.87348 44.7816 8.84242 44.9759 9.88636 44.9759V42.9759C9.09319 42.9759 8.42387 42.8292 7.85706 42.5608L7.00089 44.3682ZM9.88636 44.9759C11.0404 44.9759 12.0891 44.7323 12.9861 44.1941L11.9571 42.4792C11.4336 42.7932 10.7588 42.9759 9.88636 42.9759V44.9759ZM12.9861 44.1941C13.8876 43.6532 14.5583 42.8636 15.0034 41.8707L13.1784 41.0526C12.8849 41.7074 12.476 42.1678 11.9571 42.4792L12.9861 44.1941ZM15.0013 41.8755C15.4546 40.8782 15.6591 39.7103 15.6591 38.4077H13.6591C13.6591 39.5104 13.4848 40.3785 13.1805 41.0478L15.0013 41.8755ZM15.6591 38.4077V17.6122H13.6591V38.4077H15.6591Z" fill="black" mask="url(#path-2-outside-1_108_5)"/>
<path d="M46.4886 19.0554V42.3281H42.2386L32.1136 27.6804H31.9432V42.3281H27.0227V19.0554H31.3409L41.3864 33.6918H41.5909V19.0554H46.4886Z" fill="#F04639"/>
</svg>
